<svg xmlns="http://www.w3.org/2000/svg" xmlns:xlink="http://www.w3.org/1999/xlink" version="1.1" id="Слой_1" x="0px" y="0px" viewBox="0 0 64 64" style="enable-background:new 0 0 64 64;" xml:space="preserve" width="100" height="100" fill="#000000">
<linearGradient id="SVGID_1__52987" gradientUnits="userSpaceOnUse" x1="10" y1="25.625" x2="10" y2="38.5218" spreadMethod="reflect">
	<stop offset="0" style="stop-color:#6DC7FF"/>
	<stop offset="1" style="stop-color:#E6ABFF"/>
</linearGradient>
<rect x="8" y="26" style="fill:url(#SVGID_1__52987);" width="4" height="12"/>
<linearGradient id="SVGID_2__52987" gradientUnits="userSpaceOnUse" x1="33.3349" y1="25.625" x2="33.3349" y2="38.5218" spreadMethod="reflect">
	<stop offset="0" style="stop-color:#6DC7FF"/>
	<stop offset="1" style="stop-color:#E6ABFF"/>
</linearGradient>
<path style="fill:url(#SVGID_2__52987);" d="M36,32c0,2.209-1.791,4-4,4s-1-1.791-1-4s-1.209-4,1-4S36,29.791,36,32z"/>
<linearGradient id="SVGID_3__52987" gradientUnits="userSpaceOnUse" x1="23" y1="6" x2="23" y2="57.7506" spreadMethod="reflect">
	<stop offset="0" style="stop-color:#1A6DFF"/>
	<stop offset="1" style="stop-color:#C822FF"/>
</linearGradient>
<path style="fill:url(#SVGID_3__52987);" d="M37.924,26.643C37.56,13.614,36.24,7,34,7h-0.345c-1.969,0-3.857,0.836-5.182,2.292L20.558,18  H17c-2.757,0-5,2.243-5,5v1H9c-1.654,0-3,1.346-3,3v10c0,1.654,1.346,3,3,3h3v1c0,2.757,2.243,5,5,5h3.558l7.916,8.708  C29.799,56.165,31.688,57,33.655,57H34c2.24,0,3.56-6.614,3.924-19.643C39.209,35.938,40,34.062,40,32S39.209,28.063,37.924,26.643z   M9,38c-0.552,0-1-0.448-1-1V27c0-0.552,0.448-1,1-1h3v12H9z M32.094,37.995C32.035,36.124,32,34.127,32,32s0.035-4.124,0.094-5.995  C35.359,26.056,38,28.723,38,32S35.359,37.944,32.094,37.995z M35.868,25.002c-1.101-0.611-2.359-0.965-3.698-0.994  c0.337-7.656,1.124-12.768,1.826-14.525C34.686,11.238,35.543,16.452,35.868,25.002z M14,41V23c0-1.302,0.838-2.401,2-2.816V32h2V20  h2v24h-3C15.346,44,14,42.654,14,41z M22,44.613V19.387l7.954-8.749c0.552-0.608,1.25-1.042,2.009-1.316  c-0.392,1.203-0.75,2.977-1.076,5.584C30.314,19.479,30,25.55,30,32s0.314,12.521,0.887,17.095c0.326,2.607,0.684,4.381,1.076,5.584  c-0.758-0.274-1.456-0.708-2.009-1.316L22,44.613z M33.996,54.517c-0.703-1.758-1.489-6.869-1.826-14.525  c1.339-0.028,2.598-0.383,3.698-0.994C35.543,47.548,34.686,52.762,33.996,54.517z"/>
<linearGradient id="SVGID_4__52987" gradientUnits="userSpaceOnUse" x1="53.6162" y1="6" x2="53.6162" y2="57.7506" spreadMethod="reflect">
	<stop offset="0" style="stop-color:#1A6DFF"/>
	<stop offset="1" style="stop-color:#C822FF"/>
</linearGradient>
<path style="fill:url(#SVGID_4__52987);" d="M50.645,14.289l-1.412,1.416C53.597,20.053,56,25.84,56,32c0,6.129-2.383,11.894-6.708,16.234  l1.416,1.412C55.41,44.929,58,38.661,58,32C58,25.304,55.388,19.014,50.645,14.289z"/>
<linearGradient id="SVGID_5__52987" gradientUnits="userSpaceOnUse" x1="48.6392" y1="6" x2="48.6392" y2="57.7506" spreadMethod="reflect">
	<stop offset="0" style="stop-color:#1A6DFF"/>
	<stop offset="1" style="stop-color:#C822FF"/>
</linearGradient>
<path style="fill:url(#SVGID_5__52987);" d="M46.724,18.858l-1.445,1.383C48.323,23.421,50,27.597,50,32c0,4.404-1.677,8.58-4.722,11.757  l1.443,1.384C50.126,41.59,52,36.923,52,32C52,27.078,50.126,22.411,46.724,18.858z"/>
</svg>