<svg xmlns="http://www.w3.org/2000/svg" viewBox="0 0 50 50" width="100" height="100" fill="#000000">
    <path d="M 8 4 C 5.794 4 4 5.794 4 8 L 4 22 L 46 22 L 46 8 C 46 5.794 44.206 4 42 4 L 8 4 z M 16 8 L 18 8 L 18 10 L 16 10 L 16 8 z M 30 10 L 32 10 L 32 12 L 30 12 L 30 10 z M 8 12 L 10 12 L 10 14 L 8 14 L 8 12 z M 20 12 L 22 12 L 22 14 L 20 14 L 20 12 z M 38 12 L 40 12 L 40 14 L 38 14 L 38 12 z M 14 16 L 16 16 L 16 18 L 14 18 L 14 16 z M 26 16 L 28 16 L 28 18 L 26 18 L 26 16 z M 32 18 L 34 18 L 34 20 L 32 20 L 32 18 z M 0 24 L 0 26 L 4 26 L 4 42 C 4 44.206 5.794 46 8 46 L 42 46 C 44.206 46 46 44.206 46 42 L 46 26 L 50 26 L 50 24 L 46 24 L 4 24 L 0 24 z M 8 26 L 10 26 L 10 28 L 12 28 L 12 30 L 14 30 L 14 32 L 16 32 L 18 32 L 18 36 L 20 36 L 20 38 L 22 38 L 22 42 L 24 42 L 24 40 L 24 38 L 26 38 L 26 36 L 22 36 L 22 34 L 20 34 L 20 32 L 22 32 L 22 30 L 20 30 L 20 26 L 22 26 L 22 30 L 26 30 L 28 30 L 30 30 L 30 28 L 28 28 L 28 26 L 30 26 L 30 28 L 34 28 L 34 26 L 36 26 L 36 28 L 34 28 L 34 30 L 36 30 L 38 30 L 38 28 L 40 28 L 40 26 L 42 26 L 42 28 L 40 28 L 40 30 L 38 30 L 38 32 L 40 32 L 40 34 L 42 34 L 42 36 L 44 36 L 44 38 L 42 38 L 42 40 L 42 42 L 40 42 L 40 44 L 38 44 L 38 42 L 36 42 L 36 44 L 34 44 L 34 40 L 32 40 L 32 38 L 30 38 L 30 42 L 32 42 L 32 44 L 30 44 L 30 42 L 28 42 L 26 42 L 26 44 L 22 44 L 22 42 L 20 42 L 18 42 L 18 44 L 16 44 L 16 42 L 18 42 L 18 40 L 16 40 L 16 38 L 14 38 L 14 42 L 12 42 L 12 44 L 10 44 L 10 42 L 10 40 L 8 40 L 8 42 L 6 42 L 6 40 L 8 40 L 8 36 L 6 36 L 6 34 L 8 34 L 8 30 L 6 30 L 6 28 L 8 28 L 8 26 z M 8 28 L 8 30 L 10 30 L 10 28 L 8 28 z M 8 34 L 8 36 L 10 36 L 10 34 L 8 34 z M 10 34 L 12 34 L 12 38 L 14 38 L 14 36 L 16 36 L 16 34 L 14 34 L 14 32 L 12 32 L 10 32 L 10 34 z M 16 36 L 16 38 L 18 38 L 18 36 L 16 36 z M 18 38 L 18 40 L 20 40 L 20 38 L 18 38 z M 12 38 L 10 38 L 10 40 L 12 40 L 12 38 z M 30 38 L 30 36 L 30 34 L 34 34 L 34 30 L 30 30 L 30 32 L 28 32 L 28 34 L 26 34 L 26 36 L 28 36 L 28 38 L 30 38 z M 28 38 L 26 38 L 26 40 L 28 40 L 28 38 z M 26 34 L 26 32 L 22 32 L 22 34 L 26 34 z M 34 34 L 34 36 L 36 36 L 36 34 L 34 34 z M 36 34 L 38 34 L 38 32 L 36 32 L 36 34 z M 38 34 L 38 38 L 42 38 L 42 36 L 40 36 L 40 34 L 38 34 z M 38 38 L 36 38 L 34 38 L 34 40 L 36 40 L 38 40 L 38 38 z M 38 40 L 38 42 L 40 42 L 40 40 L 38 40 z M 34 38 L 34 36 L 32 36 L 32 38 L 34 38 z M 14 26 L 16 26 L 16 28 L 18 28 L 18 30 L 16 30 L 16 28 L 14 28 L 14 26 z M 24 26 L 26 26 L 26 28 L 24 28 L 24 26 z M 42 30 L 44 30 L 44 32 L 42 32 L 42 30 z"/>
</svg>