<svg version="1.1" id="Layer_1" xmlns="http://www.w3.org/2000/svg" xmlns:xlink="http://www.w3.org/1999/xlink" x="0px" y="0px" width="100" height="100" viewBox="0 0 512 512" enable-background="new 0 0 512 512" xml:space="preserve" fill="#000000">
<g>
	<g>
		<g>
			<g>
				<g>
					<g>
						<g>
							<path fill="#337180" d="M504.1,256C504.1,119,393,7.9,256,7.9C119,7.9,7.9,119,7.9,256C7.9,393,119,504.1,256,504.1&#10;&#9;&#9;&#9;&#9;&#9;&#9;&#9;&#9;C393,504.1,504.1,393,504.1,256z"/>
						</g>
					</g>
				</g>
			</g>
		</g>
	</g>
	<g>
		<g>
			<path fill="#DFF2F4" d="M81.3,259c0,3.3-2.7,6-6,6H64.7c-3.3,0-6-2.7-6-6v-6.5c0-3.3,2.7-6,6-6h10.7c3.3,0,6,2.7,6,6V259z"/>
		</g>
		<g>
			<path fill="#DFF2F4" d="M112.3,274.7c0,3.3-2.7,6-6,6H95.7c-3.3,0-6-2.7-6-6v-37.5c0-3.3,2.7-6,6-6h10.7c3.3,0,6,2.7,6,6V274.7z"/>
		</g>
		<g>
			<path fill="#B5E3EA" d="M143.3,282.5c0,3.3-2.7,6-6,6h-10.7c-3.3,0-6-2.7-6-6v-53c0-3.3,2.7-6,6-6h10.7c3.3,0,6,2.7,6,6V282.5z"/>
		</g>
		<g>
			<path fill="#B5E3EA" d="M174.3,298c0,3.3-2.7,6-6,6h-10.7c-3.3,0-6-2.7-6-6v-84c0-3.3,2.7-6,6-6h10.7c3.3,0,6,2.7,6,6V298z"/>
		</g>
		<g>
			<path fill="#A3D5E0" d="M205.3,329c0,3.3-2.7,6-6,6h-10.7c-3.3,0-6-2.7-6-6V183c0-3.3,2.7-6,6-6h10.7c3.3,0,6,2.7,6,6V329z"/>
		</g>
		<g>
			<path fill="#A3D5E0" d="M236.3,344.5c0,3.3-2.7,6-6,6h-10.7c-3.3,0-6-2.7-6-6v-177c0-3.3,2.7-6,6-6h10.7c3.3,0,6,2.7,6,6V344.5z"/>
		</g>
		<g>
			<path fill="#8EC5CE" d="M267.3,391c0,3.3-2.7,6-6,6h-10.7c-3.3,0-6-2.7-6-6V121c0-3.3,2.7-6,6-6h10.7c3.3,0,6,2.7,6,6V391z"/>
		</g>
		<g>
			<path fill="#A3D5E0" d="M298.3,329c0,3.3-2.7,6-6,6h-10.7c-3.3,0-6-2.7-6-6V183c0-3.3,2.7-6,6-6h10.7c3.3,0,6,2.7,6,6V329z"/>
		</g>
		<g>
			<path fill="#A3D5E0" d="M329.3,298c0,3.3-2.7,6-6,6h-10.7c-3.3,0-6-2.7-6-6v-84c0-3.3,2.7-6,6-6h10.7c3.3,0,6,2.7,6,6V298z"/>
		</g>
		<g>
			<path fill="#B5E3EA" d="M360.3,313.5c0,3.3-2.7,6-6,6h-10.7c-3.3,0-6-2.7-6-6v-115c0-3.3,2.7-6,6-6h10.7c3.3,0,6,2.7,6,6V313.5z"/>
		</g>
		<g>
			<path fill="#B5E3EA" d="M391.3,282.5c0,3.3-2.7,6-6,6h-10.7c-3.3,0-6-2.7-6-6v-53c0-3.3,2.7-6,6-6h10.7c3.3,0,6,2.7,6,6V282.5z"/>
		</g>
		<g>
			<path fill="#DFF2F4" d="M453.3,259.2c0,3.3-2.7,6-6,6h-10.7c-3.3,0-6-2.7-6-6v-6.5c0-3.3,2.7-6,6-6h10.7c3.3,0,6,2.7,6,6V259.2z"/>
		</g>
		<g>
			<path fill="#DFF2F4" d="M422.3,267c0,3.3-2.7,6-6,6h-10.7c-3.3,0-6-2.7-6-6v-22c0-3.3,2.7-6,6-6h10.7c3.3,0,6,2.7,6,6V267z"/>
		</g>
	</g>
</g>
</svg>