<svg xmlns="http://www.w3.org/2000/svg" viewBox="0 0 30 30" width="100" height="100" fill="#000000">
    <path style="line-height:normal;text-indent:0;text-align:start;text-decoration-line:none;text-decoration-style:solid;text-decoration-color:#000;text-transform:none;block-progression:tb;isolation:auto;mix-blend-mode:normal" d="M 14.984375 3.9863281 A 1.0001 1.0001 0 0 0 14 5 L 14 25 A 1.0001 1.0001 0 1 0 16 25 L 16 5 A 1.0001 1.0001 0 0 0 14.984375 3.9863281 z M 24 6 A 1.0001 1.0001 0 1 0 24 8 L 25 8 L 25 10 A 1.0001 1.0001 0 1 0 25 12 L 25 14 L 24 14 A 1.0001 1.0001 0 1 0 24 16 L 25 16 L 25 18 A 1.0001 1.0001 0 1 0 25 20 L 25 22 L 24 22 A 1.0001 1.0001 0 1 0 24 24 L 26 24 A 1.0001 1.0001 0 0 0 27 23 L 27 19.167969 A 1.0001 1.0001 0 0 0 27 18.841797 L 27 15.167969 A 1.0001 1.0001 0 0 0 27 14.841797 L 27 11.167969 A 1.0001 1.0001 0 0 0 27 10.841797 L 27 7 A 1.0001 1.0001 0 0 0 26 6 L 24 6 z M 6.984375 6.9863281 A 1.0001 1.0001 0 0 0 6 8 L 6 22 A 1.0001 1.0001 0 1 0 8 22 L 8 8 A 1.0001 1.0001 0 0 0 6.984375 6.9863281 z M 10.984375 9.9863281 A 1.0001 1.0001 0 0 0 10 11 L 10 19 A 1.0001 1.0001 0 1 0 12 19 L 12 11 A 1.0001 1.0001 0 0 0 10.984375 9.9863281 z M 2.984375 10.986328 A 1.0001 1.0001 0 0 0 2 12 L 2 18 A 1.0001 1.0001 0 1 0 4 18 L 4 12 A 1.0001 1.0001 0 0 0 2.984375 10.986328 z M 18.984375 10.986328 A 1.0001 1.0001 0 0 0 18 12 L 18 18 A 1.0001 1.0001 0 1 0 20 18 L 20 12 A 1.0001 1.0001 0 0 0 18.984375 10.986328 z"/>
</svg>