<svg xmlns="http://www.w3.org/2000/svg" viewBox="0 0 80 80" width="100" height="100" fill="#000000">
    <path style="line-height:normal;text-indent:0;text-align:start;text-decoration-line:none;text-decoration-style:solid;text-decoration-color:#000;text-transform:none;block-progression:tb;isolation:auto;mix-blend-mode:normal" d="M 14 10 C 11.802666 10 10 11.802666 10 14 L 10 41 L 6 41 L 6 43 L 10 43 L 10 66 C 10 68.197334 11.802666 70 14 70 L 66 70 C 68.197334 70 70 68.197334 70 66 L 70 43 L 74 43 L 74 41 L 70 41 L 70 14 C 70 11.802666 68.197334 10 66 10 L 14 10 z M 14 12 L 66 12 C 67.116666 12 68 12.883334 68 14 L 68 41 L 12 41 L 12 14 C 12 12.883334 12.883334 12 14 12 z M 28 16 A 1 1 0 0 0 27 17 A 1 1 0 0 0 28 18 A 1 1 0 0 0 29 17 A 1 1 0 0 0 28 16 z M 31 19 A 1 1 0 0 0 30 20 A 1 1 0 0 0 31 21 A 1 1 0 0 0 32 20 A 1 1 0 0 0 31 19 z M 43 19 A 1 1 0 0 0 42 20 A 1 1 0 0 0 43 21 A 1 1 0 0 0 44 20 A 1 1 0 0 0 43 19 z M 61 19 A 1 1 0 0 0 60 20 A 1 1 0 0 0 61 21 A 1 1 0 0 0 62 20 A 1 1 0 0 0 61 19 z M 19 25 A 1 1 0 0 0 18 26 A 1 1 0 0 0 19 27 A 1 1 0 0 0 20 26 A 1 1 0 0 0 19 25 z M 31 25 A 1 1 0 0 0 30 26 A 1 1 0 0 0 31 27 A 1 1 0 0 0 32 26 A 1 1 0 0 0 31 25 z M 43 25 A 1 1 0 0 0 42 26 A 1 1 0 0 0 43 27 A 1 1 0 0 0 44 26 A 1 1 0 0 0 43 25 z M 49 25 A 1 1 0 0 0 48 26 A 1 1 0 0 0 49 27 A 1 1 0 0 0 50 26 A 1 1 0 0 0 49 25 z M 58 28 A 1 1 0 0 0 57 29 A 1 1 0 0 0 58 30 A 1 1 0 0 0 59 29 A 1 1 0 0 0 58 28 z M 34 31 A 1 1 0 0 0 33 32 A 1 1 0 0 0 34 33 A 1 1 0 0 0 35 32 A 1 1 0 0 0 34 31 z M 49 31 A 1 1 0 0 0 48 32 A 1 1 0 0 0 49 33 A 1 1 0 0 0 50 32 A 1 1 0 0 0 49 31 z M 16 34 A 1 1 0 0 0 15 35 A 1 1 0 0 0 16 36 A 1 1 0 0 0 17 35 A 1 1 0 0 0 16 34 z M 22 34 A 1 1 0 0 0 21 35 A 1 1 0 0 0 22 36 A 1 1 0 0 0 23 35 A 1 1 0 0 0 22 34 z M 40 34 A 1 1 0 0 0 39 35 A 1 1 0 0 0 40 36 A 1 1 0 0 0 41 35 A 1 1 0 0 0 40 34 z M 64 34 A 1 1 0 0 0 63 35 A 1 1 0 0 0 64 36 A 1 1 0 0 0 65 35 A 1 1 0 0 0 64 34 z M 12 43 L 68 43 L 68 48 L 68 54 L 68 60 L 68 66 A 1 1 0 0 0 67 65 A 1 1 0 0 0 66 66 A 1 1 0 0 0 67 67 A 1 1 0 0 0 67.980469 66.195312 C 67.882894 67.216315 67.049565 68 66 68 L 14 68 C 12.953092 68 12.120622 67.220323 12.019531 66.203125 A 1 1 0 0 0 13 67 A 1 1 0 0 0 14 66 A 1 1 0 0 0 13 65 A 1 1 0 0 0 12 66 L 12 60 L 12 54 L 12 48 L 12 43 z M 12 48 A 1 1 0 0 0 13 49 A 1 1 0 0 0 14 48 A 1 1 0 0 0 13 47 A 1 1 0 0 0 12 48 z M 12 54 A 1 1 0 0 0 13 55 A 1 1 0 0 0 14 54 A 1 1 0 0 0 13 53 A 1 1 0 0 0 12 54 z M 12 60 A 1 1 0 0 0 13 61 A 1 1 0 0 0 14 60 A 1 1 0 0 0 13 59 A 1 1 0 0 0 12 60 z M 68 60 A 1 1 0 0 0 67 59 A 1 1 0 0 0 66 60 A 1 1 0 0 0 67 61 A 1 1 0 0 0 68 60 z M 68 54 A 1 1 0 0 0 67 53 A 1 1 0 0 0 66 54 A 1 1 0 0 0 67 55 A 1 1 0 0 0 68 54 z M 68 48 A 1 1 0 0 0 67 47 A 1 1 0 0 0 66 48 A 1 1 0 0 0 67 49 A 1 1 0 0 0 68 48 z M 16 44 A 1 1 0 0 0 15 45 A 1 1 0 0 0 16 46 A 1 1 0 0 0 17 45 A 1 1 0 0 0 16 44 z M 22 44 A 1 1 0 0 0 21 45 A 1 1 0 0 0 22 46 A 1 1 0 0 0 23 45 A 1 1 0 0 0 22 44 z M 28 44 A 1 1 0 0 0 27 45 A 1 1 0 0 0 28 46 A 1 1 0 0 0 29 45 A 1 1 0 0 0 28 44 z M 34 44 A 1 1 0 0 0 33 45 A 1 1 0 0 0 34 46 A 1 1 0 0 0 35 45 A 1 1 0 0 0 34 44 z M 40 44 A 1 1 0 0 0 39 45 A 1 1 0 0 0 40 46 A 1 1 0 0 0 41 45 A 1 1 0 0 0 40 44 z M 46 44 A 1 1 0 0 0 45 45 A 1 1 0 0 0 46 46 A 1 1 0 0 0 47 45 A 1 1 0 0 0 46 44 z M 52 44 A 1 1 0 0 0 51 45 A 1 1 0 0 0 52 46 A 1 1 0 0 0 53 45 A 1 1 0 0 0 52 44 z M 58 44 A 1 1 0 0 0 57 45 A 1 1 0 0 0 58 46 A 1 1 0 0 0 59 45 A 1 1 0 0 0 58 44 z M 64 44 A 1 1 0 0 0 63 45 A 1 1 0 0 0 64 46 A 1 1 0 0 0 65 45 A 1 1 0 0 0 64 44 z M 19 47 A 1 1 0 0 0 18 48 A 1 1 0 0 0 19 49 A 1 1 0 0 0 20 48 A 1 1 0 0 0 19 47 z M 25 47 A 1 1 0 0 0 24 48 A 1 1 0 0 0 25 49 A 1 1 0 0 0 26 48 A 1 1 0 0 0 25 47 z M 31 47 A 1 1 0 0 0 30 48 A 1 1 0 0 0 31 49 A 1 1 0 0 0 32 48 A 1 1 0 0 0 31 47 z M 37 47 A 1 1 0 0 0 36 48 A 1 1 0 0 0 37 49 A 1 1 0 0 0 38 48 A 1 1 0 0 0 37 47 z M 43 47 A 1 1 0 0 0 42 48 A 1 1 0 0 0 43 49 A 1 1 0 0 0 44 48 A 1 1 0 0 0 43 47 z M 49 47 A 1 1 0 0 0 48 48 A 1 1 0 0 0 49 49 A 1 1 0 0 0 50 48 A 1 1 0 0 0 49 47 z M 55 47 A 1 1 0 0 0 54 48 A 1 1 0 0 0 55 49 A 1 1 0 0 0 56 48 A 1 1 0 0 0 55 47 z M 61 47 A 1 1 0 0 0 60 48 A 1 1 0 0 0 61 49 A 1 1 0 0 0 62 48 A 1 1 0 0 0 61 47 z M 16 50 A 1 1 0 0 0 15 51 A 1 1 0 0 0 16 52 A 1 1 0 0 0 17 51 A 1 1 0 0 0 16 50 z M 22 50 A 1 1 0 0 0 21 51 A 1 1 0 0 0 22 52 A 1 1 0 0 0 23 51 A 1 1 0 0 0 22 50 z M 28 50 A 1 1 0 0 0 27 51 A 1 1 0 0 0 28 52 A 1 1 0 0 0 29 51 A 1 1 0 0 0 28 50 z M 34 50 A 1 1 0 0 0 33 51 A 1 1 0 0 0 34 52 A 1 1 0 0 0 35 51 A 1 1 0 0 0 34 50 z M 40 50 A 1 1 0 0 0 39 51 A 1 1 0 0 0 40 52 A 1 1 0 0 0 41 51 A 1 1 0 0 0 40 50 z M 46 50 A 1 1 0 0 0 45 51 A 1 1 0 0 0 46 52 A 1 1 0 0 0 47 51 A 1 1 0 0 0 46 50 z M 52 50 A 1 1 0 0 0 51 51 A 1 1 0 0 0 52 52 A 1 1 0 0 0 53 51 A 1 1 0 0 0 52 50 z M 58 50 A 1 1 0 0 0 57 51 A 1 1 0 0 0 58 52 A 1 1 0 0 0 59 51 A 1 1 0 0 0 58 50 z M 64 50 A 1 1 0 0 0 63 51 A 1 1 0 0 0 64 52 A 1 1 0 0 0 65 51 A 1 1 0 0 0 64 50 z M 19 53 A 1 1 0 0 0 18 54 A 1 1 0 0 0 19 55 A 1 1 0 0 0 20 54 A 1 1 0 0 0 19 53 z M 25 53 A 1 1 0 0 0 24 54 A 1 1 0 0 0 25 55 A 1 1 0 0 0 26 54 A 1 1 0 0 0 25 53 z M 31 53 A 1 1 0 0 0 30 54 A 1 1 0 0 0 31 55 A 1 1 0 0 0 32 54 A 1 1 0 0 0 31 53 z M 37 53 A 1 1 0 0 0 36 54 A 1 1 0 0 0 37 55 A 1 1 0 0 0 38 54 A 1 1 0 0 0 37 53 z M 43 53 A 1 1 0 0 0 42 54 A 1 1 0 0 0 43 55 A 1 1 0 0 0 44 54 A 1 1 0 0 0 43 53 z M 49 53 A 1 1 0 0 0 48 54 A 1 1 0 0 0 49 55 A 1 1 0 0 0 50 54 A 1 1 0 0 0 49 53 z M 55 53 A 1 1 0 0 0 54 54 A 1 1 0 0 0 55 55 A 1 1 0 0 0 56 54 A 1 1 0 0 0 55 53 z M 61 53 A 1 1 0 0 0 60 54 A 1 1 0 0 0 61 55 A 1 1 0 0 0 62 54 A 1 1 0 0 0 61 53 z M 16 56 A 1 1 0 0 0 15 57 A 1 1 0 0 0 16 58 A 1 1 0 0 0 17 57 A 1 1 0 0 0 16 56 z M 22 56 A 1 1 0 0 0 21 57 A 1 1 0 0 0 22 58 A 1 1 0 0 0 23 57 A 1 1 0 0 0 22 56 z M 28 56 A 1 1 0 0 0 27 57 A 1 1 0 0 0 28 58 A 1 1 0 0 0 29 57 A 1 1 0 0 0 28 56 z M 34 56 A 1 1 0 0 0 33 57 A 1 1 0 0 0 34 58 A 1 1 0 0 0 35 57 A 1 1 0 0 0 34 56 z M 40 56 A 1 1 0 0 0 39 57 A 1 1 0 0 0 40 58 A 1 1 0 0 0 41 57 A 1 1 0 0 0 40 56 z M 46 56 A 1 1 0 0 0 45 57 A 1 1 0 0 0 46 58 A 1 1 0 0 0 47 57 A 1 1 0 0 0 46 56 z M 52 56 A 1 1 0 0 0 51 57 A 1 1 0 0 0 52 58 A 1 1 0 0 0 53 57 A 1 1 0 0 0 52 56 z M 58 56 A 1 1 0 0 0 57 57 A 1 1 0 0 0 58 58 A 1 1 0 0 0 59 57 A 1 1 0 0 0 58 56 z M 64 56 A 1 1 0 0 0 63 57 A 1 1 0 0 0 64 58 A 1 1 0 0 0 65 57 A 1 1 0 0 0 64 56 z M 19 59 A 1 1 0 0 0 18 60 A 1 1 0 0 0 19 61 A 1 1 0 0 0 20 60 A 1 1 0 0 0 19 59 z M 25 59 A 1 1 0 0 0 24 60 A 1 1 0 0 0 25 61 A 1 1 0 0 0 26 60 A 1 1 0 0 0 25 59 z M 31 59 A 1 1 0 0 0 30 60 A 1 1 0 0 0 31 61 A 1 1 0 0 0 32 60 A 1 1 0 0 0 31 59 z M 37 59 A 1 1 0 0 0 36 60 A 1 1 0 0 0 37 61 A 1 1 0 0 0 38 60 A 1 1 0 0 0 37 59 z M 43 59 A 1 1 0 0 0 42 60 A 1 1 0 0 0 43 61 A 1 1 0 0 0 44 60 A 1 1 0 0 0 43 59 z M 49 59 A 1 1 0 0 0 48 60 A 1 1 0 0 0 49 61 A 1 1 0 0 0 50 60 A 1 1 0 0 0 49 59 z M 55 59 A 1 1 0 0 0 54 60 A 1 1 0 0 0 55 61 A 1 1 0 0 0 56 60 A 1 1 0 0 0 55 59 z M 61 59 A 1 1 0 0 0 60 60 A 1 1 0 0 0 61 61 A 1 1 0 0 0 62 60 A 1 1 0 0 0 61 59 z M 16 62 A 1 1 0 0 0 15 63 A 1 1 0 0 0 16 64 A 1 1 0 0 0 17 63 A 1 1 0 0 0 16 62 z M 22 62 A 1 1 0 0 0 21 63 A 1 1 0 0 0 22 64 A 1 1 0 0 0 23 63 A 1 1 0 0 0 22 62 z M 28 62 A 1 1 0 0 0 27 63 A 1 1 0 0 0 28 64 A 1 1 0 0 0 29 63 A 1 1 0 0 0 28 62 z M 34 62 A 1 1 0 0 0 33 63 A 1 1 0 0 0 34 64 A 1 1 0 0 0 35 63 A 1 1 0 0 0 34 62 z M 40 62 A 1 1 0 0 0 39 63 A 1 1 0 0 0 40 64 A 1 1 0 0 0 41 63 A 1 1 0 0 0 40 62 z M 46 62 A 1 1 0 0 0 45 63 A 1 1 0 0 0 46 64 A 1 1 0 0 0 47 63 A 1 1 0 0 0 46 62 z M 52 62 A 1 1 0 0 0 51 63 A 1 1 0 0 0 52 64 A 1 1 0 0 0 53 63 A 1 1 0 0 0 52 62 z M 58 62 A 1 1 0 0 0 57 63 A 1 1 0 0 0 58 64 A 1 1 0 0 0 59 63 A 1 1 0 0 0 58 62 z M 64 62 A 1 1 0 0 0 63 63 A 1 1 0 0 0 64 64 A 1 1 0 0 0 65 63 A 1 1 0 0 0 64 62 z M 19 65 A 1 1 0 0 0 18 66 A 1 1 0 0 0 19 67 A 1 1 0 0 0 20 66 A 1 1 0 0 0 19 65 z M 25 65 A 1 1 0 0 0 24 66 A 1 1 0 0 0 25 67 A 1 1 0 0 0 26 66 A 1 1 0 0 0 25 65 z M 31 65 A 1 1 0 0 0 30 66 A 1 1 0 0 0 31 67 A 1 1 0 0 0 32 66 A 1 1 0 0 0 31 65 z M 37 65 A 1 1 0 0 0 36 66 A 1 1 0 0 0 37 67 A 1 1 0 0 0 38 66 A 1 1 0 0 0 37 65 z M 43 65 A 1 1 0 0 0 42 66 A 1 1 0 0 0 43 67 A 1 1 0 0 0 44 66 A 1 1 0 0 0 43 65 z M 49 65 A 1 1 0 0 0 48 66 A 1 1 0 0 0 49 67 A 1 1 0 0 0 50 66 A 1 1 0 0 0 49 65 z M 55 65 A 1 1 0 0 0 54 66 A 1 1 0 0 0 55 67 A 1 1 0 0 0 56 66 A 1 1 0 0 0 55 65 z M 61 65 A 1 1 0 0 0 60 66 A 1 1 0 0 0 61 67 A 1 1 0 0 0 62 66 A 1 1 0 0 0 61 65 z"/>
</svg>