<svg xmlns="http://www.w3.org/2000/svg" xmlns:xlink="http://www.w3.org/1999/xlink" version="1.1" id="Layer_1" x="0px" y="0px" viewBox="0 0 48 48" style="enable-background:new 0 0 48 48;" xml:space="preserve" width="100" height="100" fill="#000000">
<g id="surface1">
	<path style="fill:#B0BEC5;" d="M41,7h2v34h-2V7z"/>
	<path style="fill:#B0BEC5;" d="M37,7h5v2h-5V7z"/>
	<path style="fill:#B0BEC5;" d="M37,39h5v2h-5V39z"/>
	<path style="fill:#B0BEC5;" d="M37,23h5v2h-5V23z"/>
	<path style="fill:#B0BEC5;" d="M39,19h3v2h-3V19z"/>
	<path style="fill:#B0BEC5;" d="M39,15h3v2h-3V15z"/>
	<path style="fill:#B0BEC5;" d="M39,11h3v2h-3V11z"/>
	<path style="fill:#B0BEC5;" d="M39,35h3v2h-3V35z"/>
	<path style="fill:#B0BEC5;" d="M39,31h3v2h-3V31z"/>
	<path style="fill:#B0BEC5;" d="M39,27h3v2h-3V27z"/>
	<polygon style="fill:#2196F3;" points="16,43.1 14,43.1 12.6,22.3 11,33.1 9,33.1 7.8,24.1 7,28.2 5,27.8 7,17.8 9,17.9 10.1,25.9    12,12.9 14,12.9 15.1,29.2 17,4.9 19,4.9 20.6,24.6 22,19.7 24,19.8 25.6,30.3 27,11.9 29,11.9 31.1,25.9 32,20.8 34,21.2 32,32.2    30,32.1 28.3,21 27,39.1 25,39.2 22.7,24.5 21,30.3 19,30.1 18,17.6  "/>
</g>
</svg>