<svg version="1.1" id="Layer_1" xmlns="http://www.w3.org/2000/svg" xmlns:xlink="http://www.w3.org/1999/xlink" x="0px" y="0px" viewBox="0 0 128 128" style="enable-background:new 0 0 128 128;" xml:space="preserve" width="100" height="100" fill="#000000">

<g>
	<g>
		<circle cx="64" cy="64" r="50" style="fill:#FFFFFF;"/>
	</g>
	<g>
		<path d="M64,117c-29.2,0-53-23.8-53-53s23.8-53,53-53s53,23.8,53,53S93.2,117,64,117z M64,17c-25.9,0-47,21.1-47,47&#10;&#9;&#9;&#9;s21.1,47,47,47s47-21.1,47-47S89.9,17,64,17z" style="fill:#444B54;"/>
	</g>
	<g>
		<path d="M64,84.5c-1.7,0-3-1.3-3-3v-30c0-1.7,1.3-3,3-3s3,1.3,3,3v30C67,83.2,65.7,84.5,64,84.5z" style="fill:#444B54;"/>
	</g>
	<g>
		<path d="M74,84.5c-1.7,0-3-1.3-3-3v-15c0-1.7,1.3-3,3-3s3,1.3,3,3v15C77,83.2,75.7,84.5,74,84.5z" style="fill:#444B54;"/>
	</g>
	<g>
		<path d="M84,84.5c-1.7,0-3-1.3-3-3v-20c0-1.7,1.3-3,3-3s3,1.3,3,3v20C87,83.2,85.7,84.5,84,84.5z" style="fill:#444B54;"/>
	</g>
	<g>
		<path d="M54,84.5c-1.7,0-3-1.3-3-3v-20c0-1.7,1.3-3,3-3s3,1.3,3,3v20C57,83.2,55.7,84.5,54,84.5z" style="fill:#444B54;"/>
	</g>
	<g>
		<path d="M44,84.5c-1.7,0-3-1.3-3-3v-9c0-1.7,1.3-3,3-3s3,1.3,3,3v9C47,83.2,45.7,84.5,44,84.5z" style="fill:#444B54;"/>
	</g>
</g>
</svg>