<svg xmlns="http://www.w3.org/2000/svg" viewBox="0 0 30 30" width="100" height="100" fill="#000000">
    <path style="line-height:normal;text-indent:0;text-align:start;text-decoration-line:none;text-decoration-style:solid;text-decoration-color:#000;text-transform:none;block-progression:tb;isolation:auto;mix-blend-mode:normal" d="M 5 4 A 1.0001 1.0001 0 1 0 5 6 L 9 6 A 1.0001 1.0001 0 1 0 9 4 L 5 4 z M 5 8 A 1.0001 1.0001 0 1 0 5 10 L 9 10 A 1.0001 1.0001 0 1 0 9 8 L 5 8 z M 21 8 A 1.0001 1.0001 0 1 0 21 10 L 25 10 A 1.0001 1.0001 0 1 0 25 8 L 21 8 z M 5 12 A 1.0001 1.0001 0 1 0 5 14 L 9 14 A 1.0001 1.0001 0 1 0 9 12 L 5 12 z M 21 12 A 1.0001 1.0001 0 1 0 21 14 L 25 14 A 1.0001 1.0001 0 1 0 25 12 L 21 12 z M 5 16 A 1.0001 1.0001 0 1 0 5 18 L 9 18 A 1.0001 1.0001 0 1 0 9 16 L 5 16 z M 13 16 A 1.0001 1.0001 0 1 0 13 18 L 17 18 A 1.0001 1.0001 0 1 0 17 16 L 13 16 z M 21 16 A 1.0001 1.0001 0 1 0 21 18 L 25 18 A 1.0001 1.0001 0 1 0 25 16 L 21 16 z M 5 20 A 1.0001 1.0001 0 1 0 5 22 L 9 22 A 1.0001 1.0001 0 1 0 9 20 L 5 20 z M 13 20 A 1.0001 1.0001 0 1 0 13 22 L 17 22 A 1.0001 1.0001 0 1 0 17 20 L 13 20 z M 21 20 A 1.0001 1.0001 0 1 0 21 22 L 25 22 A 1.0001 1.0001 0 1 0 25 20 L 21 20 z M 5 24 A 1.0001 1.0001 0 1 0 5 26 L 9 26 A 1.0001 1.0001 0 1 0 9 24 L 5 24 z M 13 24 A 1.0001 1.0001 0 1 0 13 26 L 17 26 A 1.0001 1.0001 0 1 0 17 24 L 13 24 z M 21 24 A 1.0001 1.0001 0 1 0 21 26 L 25 26 A 1.0001 1.0001 0 1 0 25 24 L 21 24 z"/>
</svg>