<svg version="1.1" id="Layer_1" xmlns="http://www.w3.org/2000/svg" xmlns:xlink="http://www.w3.org/1999/xlink" x="0px" y="0px" width="100" height="100" viewBox="0 0 512 512" enable-background="new 0 0 512 512" xml:space="preserve" fill="#000000">
<g>
	<g>
		<g>
			<g>
				<g>
					<g>
						<g>
							<path fill="#337180" d="M504.1,256C504.1,119,393,7.9,256,7.9C119,7.9,7.9,119,7.9,256C7.9,393,119,504.1,256,504.1&#10;&#9;&#9;&#9;&#9;&#9;&#9;&#9;&#9;C393,504.1,504.1,393,504.1,256z"/>
						</g>
					</g>
				</g>
			</g>
		</g>
	</g>
	<g>
		<path fill="#8EC5CE" d="M165.6,328.8h-51.6c-4.1,0-7.5,3.4-7.5,7.5v25.4c0,4.1,3.4,7.5,7.5,7.5h51.6c4.1,0,7.5-3.4,7.5-7.5v-25.4&#10;&#9;&#9;&#9;C173.1,332.1,169.7,328.8,165.6,328.8z"/>
		<path fill="#A3D5E0" d="M165.6,282.3h-51.6c-4.1,0-7.5,3.4-7.5,7.5v25.4c0,4.1,3.4,7.5,7.5,7.5h51.6c4.1,0,7.5-3.4,7.5-7.5v-25.4&#10;&#9;&#9;&#9;C173.1,285.6,169.7,282.3,165.6,282.3z"/>
		<path fill="#B5E3EA" d="M165.6,235.8h-51.6c-4.1,0-7.5,3.4-7.5,7.5v25.4c0,4.1,3.4,7.5,7.5,7.5h51.6c4.1,0,7.5-3.4,7.5-7.5v-25.4&#10;&#9;&#9;&#9;C173.1,239.1,169.7,235.8,165.6,235.8z"/>
		<path fill="#8EC5CE" d="M243.1,328.8h-51.6c-4.1,0-7.5,3.4-7.5,7.5v25.4c0,4.1,3.4,7.5,7.5,7.5h51.6c4.1,0,7.5-3.4,7.5-7.5v-25.4&#10;&#9;&#9;&#9;C250.6,332.1,247.2,328.8,243.1,328.8z"/>
		<path fill="#A3D5E0" d="M243.1,282.3h-51.6c-4.1,0-7.5,3.4-7.5,7.5v25.4c0,4.1,3.4,7.5,7.5,7.5h51.6c4.1,0,7.5-3.4,7.5-7.5v-25.4&#10;&#9;&#9;&#9;C250.6,285.6,247.2,282.3,243.1,282.3z"/>
		<path fill="#B5E3EA" d="M243.1,235.8h-51.6c-4.1,0-7.5,3.4-7.5,7.5v25.4c0,4.1,3.4,7.5,7.5,7.5h51.6c4.1,0,7.5-3.4,7.5-7.5v-25.4&#10;&#9;&#9;&#9;C250.6,239.1,247.2,235.8,243.1,235.8z"/>
		<path fill="#CAE9ED" d="M243.1,189.3h-51.6c-4.1,0-7.5,3.4-7.5,7.5v25.4c0,4.1,3.4,7.5,7.5,7.5h51.6c4.1,0,7.5-3.4,7.5-7.5v-25.4&#10;&#9;&#9;&#9;C250.6,192.6,247.2,189.3,243.1,189.3z"/>
		<path fill="#DFF2F4" d="M243.1,142.8h-51.6c-4.1,0-7.5,3.4-7.5,7.5v25.4c0,4.1,3.4,7.5,7.5,7.5h51.6c4.1,0,7.5-3.4,7.5-7.5v-25.4&#10;&#9;&#9;&#9;C250.6,146.1,247.2,142.8,243.1,142.8z"/>
		<path fill="#8EC5CE" d="M320.6,328.8h-51.6c-4.1,0-7.5,3.4-7.5,7.5v25.4c0,4.1,3.4,7.5,7.5,7.5h51.6c4.1,0,7.5-3.4,7.5-7.5v-25.4&#10;&#9;&#9;&#9;C328.1,332.1,324.7,328.8,320.6,328.8z"/>
		<path fill="#A3D5E0" d="M320.6,282.3h-51.6c-4.1,0-7.5,3.4-7.5,7.5v25.4c0,4.1,3.4,7.5,7.5,7.5h51.6c4.1,0,7.5-3.4,7.5-7.5v-25.4&#10;&#9;&#9;&#9;C328.1,285.6,324.7,282.3,320.6,282.3z"/>
		<path fill="#8EC5CE" d="M398.1,328.8h-51.6c-4.1,0-7.5,3.4-7.5,7.5v25.4c0,4.1,3.4,7.5,7.5,7.5h51.6c4.1,0,7.5-3.4,7.5-7.5v-25.4&#10;&#9;&#9;&#9;C405.6,332.1,402.2,328.8,398.1,328.8z"/>
		<path fill="#A3D5E0" d="M398.1,282.3h-51.6c-4.1,0-7.5,3.4-7.5,7.5v25.4c0,4.1,3.4,7.5,7.5,7.5h51.6c4.1,0,7.5-3.4,7.5-7.5v-25.4&#10;&#9;&#9;&#9;C405.6,285.6,402.2,282.3,398.1,282.3z"/>
		<path fill="#B5E3EA" d="M398.1,235.8h-51.6c-4.1,0-7.5,3.4-7.5,7.5v25.4c0,4.1,3.4,7.5,7.5,7.5h51.6c4.1,0,7.5-3.4,7.5-7.5v-25.4&#10;&#9;&#9;&#9;C405.6,239.1,402.2,235.8,398.1,235.8z"/>
		<path fill="#CAE9ED" d="M398.1,189.3h-51.6c-4.1,0-7.5,3.4-7.5,7.5v25.4c0,4.1,3.4,7.5,7.5,7.5h51.6c4.1,0,7.5-3.4,7.5-7.5v-25.4&#10;&#9;&#9;&#9;C405.6,192.6,402.2,189.3,398.1,189.3z"/>
	</g>
</g>
</svg>